<?xml version="1.0" standalone="no"?>
<!DOCTYPE svg PUBLIC "-//W3C//DTD SVG 20010904//EN"
 "http://www.w3.org/TR/2001/REC-SVG-20010904/DTD/svg10.dtd">
<svg version="1.0" xmlns="http://www.w3.org/2000/svg"
 width="700.000000pt" height="700.000000pt" viewBox="0 0 700.000000 700.000000"
 preserveAspectRatio="xMidYMid meet">
<metadata>
Created by potrace 1.14, written by Peter Selinger 2001-2017
</metadata>
<g transform="translate(0.000000,700.000000) scale(0.100000,-0.100000)"
fill="#000000" stroke="none">
<path d="M3280 6994 c-19 -2 -84 -9 -145 -14 -564 -55 -1138 -267 -1622 -598
-306 -210 -640 -539 -860 -847 -351 -492 -560 -1042 -635 -1670 -17 -142 -16
-585 0 -730 73 -622 285 -1179 634 -1669 213 -297 515 -599 815 -814 488 -349
1045 -561 1668 -634 144 -16 586 -16 735 1 689 78 1331 348 1854 779 127 105
340 316 451 447 450 532 722 1170 807 1890 7 62 13 220 13 365 0 145 -6 303
-13 365 -99 844 -448 1560 -1043 2140 -444 433 -960 725 -1554 880 -293 76
-510 105 -835 110 -129 2 -251 1 -270 -1z m540 -595 c225 -25 478 -84 697
-164 151 -55 444 -204 583 -297 591 -392 1011 -965 1206 -1640 74 -257 107
-506 107 -798 0 -463 -88 -853 -287 -1265 -313 -648 -843 -1150 -1508 -1429
-770 -323 -1668 -291 -2419 85 -735 367 -1277 1020 -1505 1811 -74 257 -107
506 -107 798 0 365 56 684 178 1017 50 136 190 418 268 540 555 870 1518 1386
2532 1357 88 -3 203 -9 255 -15z"/>
<path d="M3205 5814 c-406 -55 -775 -204 -1099 -445 -124 -92 -321 -280 -413
-394 -454 -562 -624 -1289 -467 -1994 75 -335 243 -679 467 -956 92 -114 289
-302 413 -394 537 -399 1202 -547 1864 -415 352 70 714 242 1005 477 259 209
511 536 647 840 140 312 208 627 208 967 0 339 -67 654 -207 965 -133 298
-374 614 -635 832 -332 276 -757 460 -1201 518 -145 18 -442 18 -582 -1z m625
-1189 c330 -50 576 -259 662 -562 18 -63 22 -104 22 -208 0 -156 -17 -230 -79
-360 -69 -143 -177 -258 -317 -339 -21 -11 -38 -25 -38 -31 1 -5 121 -217 268
-470 l268 -460 -335 -3 c-300 -2 -337 -1 -348 14 -6 9 -117 202 -245 430
l-233 414 -152 0 -153 0 0 -430 0 -430 -285 0 -285 0 0 1225 0 1225 578 0
c453 0 597 -3 672 -15z"/>
<path d="M3150 3820 l0 -322 278 5 c319 4 332 7 408 82 72 70 97 140 92 255
-7 137 -56 212 -173 267 l-60 28 -272 3 -273 4 0 -322z"/>
</g>
</svg>
